<?xml version="1.0" encoding="UTF-8" standalone="no"?>
<!DOCTYPE svg PUBLIC "-//W3C//DTD SVG 1.1//EN" "http://www.w3.org/Graphics/SVG/1.1/DTD/svg11.dtd">
<svg width="100%" height="100%" viewBox="0 0 300 300" version="1.1" xmlns="http://www.w3.org/2000/svg" xmlns:xlink="http://www.w3.org/1999/xlink" xml:space="preserve" xmlns:serif="http://www.serif.com/" style="fill-rule:evenodd;clip-rule:evenodd;stroke-linecap:round;stroke-linejoin:round;stroke-miterlimit:10;">
    <g transform="matrix(4.166667,0,0,4.166667,0,0)">
        <g transform="matrix(-1,-0,0,-1,86.34987,72.0363)">
            <g id="color">
                <path d="M52.498,49.249L36,67.036L19.502,49.249L23.578,45.46L33.219,55.855L33.219,5.036L38.781,5.036L38.781,55.855L48.422,45.46L52.498,49.249Z" style="fill:rgb(63,63,63);fill-rule:nonzero;"/>
            </g>
        </g>
        <g transform="matrix(-1,-0,0,-1,86.34987,72.0363)">
            <g id="line">
                <path d="M52.498,49.249L36,67.036L19.502,49.249L23.578,45.46L33.219,55.855L33.219,5.036L38.781,5.036L38.781,55.855L48.422,45.46L52.498,49.249Z" style="fill:none;fill-rule:nonzero;stroke:black;stroke-width:2px;"/>
            </g>
        </g>
        <g>
            <g transform="matrix(31,0,0,31,7.948886,30.288)">
                <path d="M-0.01,-0L0.188,-0.65L0.396,-0.65L0.594,-0L0.412,-0L0.338,-0.316C0.33,-0.347 0.322,-0.381 0.314,-0.418C0.306,-0.455 0.298,-0.489 0.29,-0.522L0.286,-0.522C0.279,-0.489 0.272,-0.455 0.264,-0.418C0.256,-0.381 0.248,-0.347 0.24,-0.316L0.166,-0L-0.01,-0ZM0.132,-0.138L0.132,-0.271L0.45,-0.271L0.45,-0.138L0.132,-0.138Z" style="fill-rule:nonzero;"/>
            </g>
            <g transform="matrix(31,0,0,31,26.052886,30.288)">
            </g>
            <g transform="matrix(31,0,0,31,8.599886,63.288)">
                <path d="M0.032,-0L0.032,-0.104L0.298,-0.506L0.058,-0.506L0.058,-0.65L0.51,-0.65L0.51,-0.546L0.244,-0.144L0.512,-0.144L0.512,-0L0.032,-0Z" style="fill-rule:nonzero;"/>
            </g>
            <g transform="matrix(31,0,0,31,25.401886,63.288)">
            </g>
        </g>
    </g>
</svg>
